<svg width="68" height="68" viewBox="0 0 68 68" fill="none" xmlns="http://www.w3.org/2000/svg">
<g clip-path="url(#clip0_23320_20190)">
<circle cx="34" cy="34" r="34" fill="#F1F3F5"/>
<path d="M45.4169 26.5375C41.5006 28.2534 37.7143 30.2398 33.8669 32.0948C31.8628 33.061 32.3141 35.542 32.3218 37.3661C32.3371 39.739 32.4136 42.1041 32.36 44.477C32.3371 45.4045 35.6032 45.76 35.6567 44.307C35.6491 42.2742 35.6338 40.2491 35.6262 38.2241C35.6185 36.3768 35.3049 32.8677 37.0489 32.0175C39.1141 31.0127 43.5658 28.8176 45.6234 27.7974C46.7249 27.2563 46.6637 27.7433 46.6331 28.6553C46.5566 30.889 46.4801 34.429 46.4113 36.6628C46.3654 37.9458 46.3271 39.2289 46.2812 40.5042C46.22 42.3592 44.5296 43.0703 43.1757 43.8355C40.0549 45.6132 38.8158 46.502 35.6185 48.1406C35.0907 48.4112 33.9281 48.6894 32.6966 48.1406C32.1611 47.8933 28.6349 45.7059 26.7303 44.562C25.3994 43.7659 24.0761 42.9698 22.7529 42.1737C21.2995 41.308 21.2536 39.8858 21.2536 38.4096C21.2536 34.6377 21.2689 31.2832 21.2536 27.2563C21.2383 24.7057 24.2215 23.469 27.021 22.2401L33.0484 19.5812C33.6068 19.3261 34.9377 19.0247 35.7944 19.3493C36.9341 19.7822 40.1314 21.5058 42.9004 22.8275L41.1564 23.7936L48.4536 24.7752L46.09 21.0652L44.7897 21.784C42.5409 20.6942 40.3838 19.5967 38.0738 18.4991C35.5344 17.2934 32.36 18.5223 29.9812 19.5503C23.9843 22.1318 19.808 24.2806 19.808 24.2806C18.4694 25.0226 17.9569 26.3443 18.0028 28.0679C18.0564 29.7142 18.2552 38.7187 18.2093 39.8858C18.1634 41.0993 18.7524 42.1428 19.6474 42.622C22.4163 44.1137 25.0093 45.675 27.7094 47.2904C30.6084 49.0295 32.8419 50.6449 36.001 49.7406C37.0106 49.4469 42.8545 45.7446 44.7744 44.647C46.4954 43.6654 48.859 42.6374 49.4479 41.0298C49.7615 40.1796 49.7003 36.5855 49.7539 34.916C49.838 32.4658 49.9145 30.0156 49.9987 27.5655C50.0675 25.5559 47.4668 25.6409 45.4169 26.5452V26.5375Z" fill="#009EC1"/>
</g>
<defs>
<clipPath id="clip0_23320_20190">
<rect width="68" height="68" fill="white"/>
</clipPath>
</defs>
</svg>
