<svg width="204" height="40" viewBox="0 0 204 40" fill="none" xmlns="http://www.w3.org/2000/svg">
<g clip-path="url(#clip0_22316_37639)">
<path d="M34.5906 10.6827C29.6496 12.8266 24.8727 15.3085 20.0185 17.6262C17.4901 18.8334 18.0595 21.9333 18.0691 24.2124C18.0884 27.1772 18.1849 30.1322 18.1174 33.097C18.0884 34.2559 22.2091 34.7001 22.2767 32.8845C22.267 30.3447 22.2477 27.8145 22.2381 25.2843C22.2284 22.9763 21.8328 18.5919 24.0331 17.5296C26.6387 16.2742 32.2552 13.5316 34.8512 12.2568C36.2408 11.5808 36.1636 12.1892 36.125 13.3288C36.0285 16.1197 35.932 20.5427 35.8452 23.3336C35.7873 24.9367 35.739 26.5398 35.6811 28.1332C35.6039 30.4509 33.4712 31.3394 31.763 32.2955C27.8257 34.5166 26.2623 35.6272 22.2284 37.6745C21.5626 38.0125 20.0957 38.3602 18.542 37.6745C17.8665 37.3655 13.4176 34.6325 11.0147 33.2032C9.33549 32.2085 7.66597 31.2138 5.99645 30.2192C4.16287 29.1376 4.10497 27.3606 4.10497 25.5161C4.10497 20.8034 4.12427 16.6122 4.10497 11.5808C4.08567 8.39395 7.84933 6.84881 11.3814 5.31332L18.9859 1.99125C19.6904 1.67256 21.3696 1.29593 22.4504 1.70153C23.8883 2.24233 27.9222 4.39588 31.4156 6.04726L29.2153 7.25441L38.4218 8.48087L35.4398 3.84543L33.7993 4.74354C30.9621 3.38188 28.2406 2.01056 25.3262 0.639244C22.1223 -0.867274 18.1174 0.668216 15.1161 1.95262C7.55017 5.17811 2.28104 7.86281 2.28104 7.86281C0.592221 8.7899 -0.0543562 10.4413 0.00354623 12.5948C0.0710991 14.6518 0.32201 25.9024 0.264107 27.3606C0.206205 28.8768 0.949287 30.1805 2.07838 30.7793C5.57183 32.6431 8.84332 34.5939 12.2499 36.6122C15.9074 38.7851 18.7253 40.8034 22.711 39.6735C23.9848 39.3066 31.3577 34.6808 33.78 33.3095C35.9513 32.083 38.9333 30.7986 39.6764 28.7899C40.072 27.7276 39.9948 23.237 40.0624 21.1511C40.1685 18.0898 40.2651 15.0284 40.3712 11.9671C40.4581 9.45624 37.1769 9.56247 34.5906 10.6924V10.6827Z" fill="#009EC1"/>
<path d="M174.283 14.6764C174.051 14.6088 173.839 14.5701 173.636 14.5701C172.971 14.5508 172.44 15.0144 172.324 15.6614C172.015 17.1776 171.735 17.7956 171.301 18.9545C170.047 22.2959 168.329 25.4345 165.221 27.3852C164.642 27.7522 163.832 28.0902 163.146 28.2061C162.741 27.926 162.529 27.4431 162.403 26.912C162.268 26.3712 162.22 25.8207 162.22 25.2606C162.22 24.0824 162.471 22.885 162.77 21.7261C163.282 19.7947 164.218 17.4576 164.652 16.5305C164.748 16.3374 164.797 16.1153 164.797 15.8642C164.806 15.4393 164.594 14.8985 164.005 14.7247C163.697 14.6281 163.407 14.5315 163.089 14.5315C162.674 14.5219 162.259 14.7826 162.017 15.3041C161.641 16.0863 161.361 16.6271 160.879 18.0467C159.865 21.0115 159.421 23.1747 159.383 24.8454C159.383 24.913 159.383 24.9709 159.383 25.0385C159.383 26.5161 159.798 28.2833 161.245 29.2008C161.853 29.587 162.587 29.7029 163.349 29.7029C164.112 29.7029 164.922 29.587 165.733 29.4518C169.12 28.7179 171.407 25.6759 172.835 23.0684C173.81 21.2819 174.93 17.5059 175.161 16.4629C175.2 16.2698 175.219 16.096 175.219 15.9318C175.238 15.2944 174.852 14.8212 174.293 14.6667L174.283 14.6764Z" fill="#009EC1"/>
<path d="M144.599 15.3714C144.464 14.9465 144.069 14.7823 143.731 14.6858C143.374 14.5892 142.997 14.5699 142.766 14.5409C142.679 14.5313 142.563 14.5312 142.389 14.5312C141.058 14.5312 136.763 14.6954 134.563 14.6858C134.187 14.6858 133.878 14.6858 133.656 14.6761C133.299 14.6568 132.951 14.5892 132.623 14.5892C132.237 14.5699 131.784 14.7341 131.581 15.2073C131.523 15.3811 131.494 15.5356 131.494 15.6998C131.494 15.9509 131.552 16.2116 131.745 16.4241C131.909 16.5979 132.093 16.6751 132.257 16.7331C132.131 17.0421 132.006 17.4863 131.832 18.0561C131.147 20.5284 130.143 25.1155 129.554 27.1821C129.468 27.4912 129.217 28.1285 129.207 28.6887C129.207 28.9784 129.294 29.3454 129.641 29.5095C129.95 29.664 130.288 29.7123 130.597 29.7123C131.118 29.7123 131.61 29.5868 132.035 29.5578C132.276 29.5385 132.623 29.5288 133.048 29.5288C135.017 29.5288 138.558 29.7123 140.315 29.7123C140.546 29.7123 140.749 29.7123 140.923 29.7027C142.042 29.6254 142.969 29.2488 143.036 28.4376C143.036 28.1382 142.862 27.8775 142.602 27.6747C142.361 27.4912 142.081 27.4332 141.82 27.4332C141.309 27.4332 140.807 27.6167 140.498 27.6071H140.459C138.693 27.5298 133.974 27.5298 132.228 27.3463C132.546 26.1585 133.154 23.5414 133.453 22.3439C133.965 22.3246 134.524 22.3149 135.084 22.3149C136.194 22.3149 137.313 22.3439 138.153 22.3439C138.298 22.3439 138.433 22.3439 138.558 22.3439C138.954 22.3439 139.465 22.4115 139.938 22.4115C140.247 22.4115 140.537 22.3922 140.797 22.2956C141.058 22.2087 141.318 21.9866 141.367 21.6679C141.367 21.581 141.386 21.523 141.386 21.4554C141.386 20.8567 140.932 20.509 140.498 20.3738C140.054 20.229 139.552 20.2097 139.186 20.2097C139.021 20.2097 138.877 20.2097 138.8 20.2097H138.587C137.024 20.2097 136.31 20.258 135.219 20.258C134.872 20.258 134.476 20.258 134.013 20.2386C134.312 19.2633 134.515 18.2975 134.91 17.4187C135.103 17.0325 135.219 16.9649 135.528 16.9069C135.837 16.849 136.319 16.8876 136.956 16.8586C138.298 16.7814 139.755 16.7524 140.913 16.7524C141.936 16.7524 142.727 16.7717 142.959 16.791C143.017 16.791 143.075 16.791 143.123 16.791C143.769 16.791 144.628 16.4917 144.677 15.6515C144.677 15.5549 144.657 15.4487 144.628 15.3521L144.599 15.3714Z" fill="#009EC1"/>
<path d="M188.281 14.5507C188.213 14.5507 188.146 14.5507 188.098 14.5507C187.644 14.512 187.316 14.8597 187.268 15.1494C186.698 16.8587 184.131 23.0683 182.742 25.8013C181.738 22.8172 180.734 18.7805 180.725 16.7139V16.6753C180.725 16.4531 180.841 16.2117 180.841 15.893C180.85 15.584 180.667 15.246 180.262 15.0046C179.866 14.7631 179.374 14.6086 178.872 14.6086C178.611 14.6086 178.351 14.6472 178.109 14.7438C177.202 15.1398 177.308 16.1248 177.125 16.598C176.865 17.4092 174.201 26.2648 174.191 28.8433C174.191 28.9688 174.191 29.0847 174.211 29.1909C174.365 29.7221 174.838 29.6835 175.147 29.6931C175.388 29.6931 175.62 29.6641 175.735 29.6641C176.17 29.6352 176.488 29.5386 176.662 29.2489C176.816 28.9688 176.797 28.7081 176.845 28.3508C176.874 28.1093 177.251 26.2165 177.685 24.3141C177.974 23.0586 178.312 21.7356 178.573 20.9051C179.132 23.5898 179.528 25.0963 180.387 27.8003C180.57 28.3315 180.686 29.1523 181.458 29.5C181.806 29.6545 182.182 29.7124 182.549 29.7124C182.915 29.7124 183.272 29.6545 183.572 29.5676C183.745 29.4903 183.716 29.4613 183.755 29.4324C184.286 28.6984 188.464 19.8138 188.928 18.7226C189.343 17.7858 189.883 16.8008 189.893 15.9413C189.922 15.1977 189.343 14.599 188.252 14.541L188.281 14.5507Z" fill="#009EC1"/>
<path d="M128.759 35.3816C126.307 31.8182 121.724 26.0432 120.575 24.5946C126.23 22.8756 128.498 19.9205 128.981 18.723C129.27 17.9987 129.415 17.2551 129.405 16.5309C129.405 13.8268 127.533 11.3643 124.85 10.64C123.847 10.3696 122.795 10.2344 121.733 10.2344C119.185 10.2344 116.58 10.9876 114.447 12.3686C114.283 12.4748 114.061 12.6294 113.858 12.8032C113.675 12.9867 113.482 13.1508 113.453 13.4792C113.453 13.653 113.569 13.8365 113.723 13.9234C113.868 14.0103 114.051 14.0586 114.283 14.0779C114.409 14.0876 114.534 14.0972 114.64 14.0972C115.596 14.0972 116.01 13.5951 116.59 13.2281C117.892 12.3686 119.523 11.8278 121.087 11.8278C121.28 11.8278 121.463 11.8278 121.656 11.8568C123.383 12.0113 126.684 12.8611 126.665 16.1832C126.684 19.0803 123.576 20.78 122.013 21.514C120.942 22.0258 119.871 22.3445 119.021 22.6632C118.191 22.9915 117.497 23.2619 117.323 23.9379C117.304 24.0248 117.284 24.1407 117.284 24.2662C117.284 24.4787 117.333 24.7491 117.477 25.0195C118.732 27.3179 125.613 35.8838 126.877 37.4C127.485 38.1436 128.324 38.6844 129.598 38.6844H129.637C129.762 38.6844 129.888 38.6844 130.023 38.6747C130.254 38.6651 130.39 38.3947 130.37 38.2691C130.332 37.709 129.695 36.7819 128.759 35.3816Z" fill="#009EC1"/>
<path d="M117.565 13.3496C117.082 13.3496 116.551 13.4752 116.32 13.958C115.924 14.8851 112.904 28.6176 112.122 32.6543C112.103 32.7219 112.122 32.7509 112.122 32.7509C112.122 32.9923 112.325 33.1565 112.469 33.1951C112.624 33.2434 112.788 33.2627 112.961 33.2627C113.376 33.2627 113.849 33.1758 114.148 33.0792C114.766 32.8281 114.901 32.1521 115.065 31.5147C115.316 30.4525 118.935 15.5418 119.051 14.5664C119.128 13.6973 118.211 13.3786 117.584 13.3496H117.565Z" fill="#009EC1"/>
<path d="M160.167 15.5838C160.138 15.0623 159.694 14.7919 159.25 14.676C158.787 14.5505 158.217 14.5215 157.638 14.5215C157.03 14.5215 156.413 14.5601 155.94 14.5698C154.386 14.6181 152.08 14.647 150.594 14.6857H150.42C149.609 14.6857 149.059 14.5505 148.355 14.5408C148.084 14.5408 147.785 14.5698 147.457 14.6277C146.994 14.7339 146.762 15.1782 146.753 15.6321C146.753 15.9411 146.878 16.2887 147.187 16.5302C147.496 16.7813 147.747 16.8489 147.978 16.9068C147.621 17.8532 147.274 19.5046 147.119 20.1902C146.82 20.2578 146.482 20.3448 146.241 20.7117C146.145 20.8469 146.125 21.0014 146.116 21.1656C146.116 21.5229 146.318 21.9961 146.82 22.2086C146.733 22.6045 146.531 23.2902 146.347 24.0338C146.058 25.2699 144.572 30.7842 144.359 33.3047C144.359 33.353 144.359 33.3819 144.359 33.3819C144.359 33.7682 144.668 33.9807 144.929 34.0869C145.189 34.1931 145.479 34.2221 145.71 34.2318C145.778 34.2318 145.836 34.2318 145.894 34.2221C146.135 34.1931 146.347 34.1931 146.579 34.0386C146.801 33.8648 146.868 33.6137 146.936 33.2661C147.042 32.7349 149.03 24.14 149.416 22.3438C149.85 22.3341 150.594 22.3245 151.404 22.3245C152.813 22.3245 154.473 22.3534 155.149 22.4307C155.264 22.4404 155.371 22.45 155.467 22.45C155.843 22.45 156.171 22.3534 156.413 22.17C156.654 21.9768 156.779 21.6968 156.779 21.3974C156.779 21.3394 156.779 21.2718 156.77 21.2139C156.712 20.7697 156.374 20.4703 156.017 20.3737C155.66 20.2675 155.264 20.2675 154.859 20.2675H154.348C153.556 20.2482 151.134 20.2675 149.966 20.2385C150.265 19.1086 150.401 18.5775 150.787 17.3414C150.941 16.9068 151.037 16.9551 151.713 16.8875C152.292 16.8489 155.978 16.8199 157.223 16.8199C157.368 16.8199 157.744 16.8489 158.14 16.8489C158.536 16.8489 159.009 16.8199 159.404 16.6654C159.8 16.5302 160.176 16.1729 160.167 15.6514C160.167 15.6417 160.167 15.6224 160.167 15.5934V15.5838Z" fill="#009EC1"/>
<path d="M202.223 17.0509C200.389 15.9307 196.954 15.1484 195.931 14.9263C195.834 14.907 195.574 14.878 195.294 14.8104C195.168 14.7815 195.043 14.7332 194.985 14.6946C194.985 14.6946 194.966 14.6849 194.956 14.6752C194.956 14.6559 194.956 14.6366 194.956 14.627C194.937 14.2793 194.792 14.0475 194.541 13.922C194.039 13.7192 193.634 13.584 193.267 13.584C192.485 13.584 192.099 14.231 191.945 15.1871C191.636 16.8288 189.909 24.1586 189.32 27.6641C189.262 28.0504 189.137 28.4271 189.137 28.794C189.137 29.0258 189.185 29.2865 189.397 29.47C189.61 29.6535 189.889 29.7211 190.247 29.7308H190.362C190.739 29.7308 191.096 29.6921 191.443 29.6535C191.241 29.7404 191.067 29.7984 190.912 29.8467C190.584 29.9625 190.198 30.0301 190.092 30.484C190.092 30.5323 190.092 30.5709 190.092 30.6096C190.092 30.8317 190.208 31.0635 190.382 31.1697C190.565 31.2759 190.748 31.3049 190.951 31.3049C191.655 31.3049 192.553 30.9379 192.871 30.7931C197.176 28.7264 203.342 23.8399 203.94 20.2861C203.979 20.0543 203.998 19.8418 203.998 19.6487C203.998 18.4415 203.304 17.6979 202.232 17.0509H202.223ZM191.791 29.3735C192.312 28.1953 193.624 20.3537 194.473 17.0606C196.683 17.4179 197.822 17.7173 199.607 18.4029C200.968 18.9437 201.267 19.4942 201.267 19.9481C201.267 20.2088 201.161 20.4792 201.007 20.7399C199.53 23.1639 196.896 26.09 192.292 29.2093C192.061 29.3638 191.848 29.4797 191.646 29.5763C191.752 29.499 191.752 29.4314 191.791 29.3735Z" fill="#009EC1"/>
<path d="M75.8097 18.0538V23.964C75.8097 24.669 75.7132 25.2291 75.5298 25.6057C75.3465 26.0017 75.0763 26.2817 74.7192 26.4749C73.9954 26.8515 72.7988 26.8612 72.075 26.5039C71.7179 26.33 71.4573 26.0789 71.2643 25.7216C71.1485 25.5092 71.0617 25.2581 71.0038 24.9684C70.9459 24.669 70.9169 24.3117 70.9169 23.8868V16.0645L67.3945 18.0345V24.2151C67.3945 24.8042 67.4524 25.3547 67.5682 25.8472C67.684 26.3397 67.8577 26.8032 68.099 27.2088C68.5429 27.9814 69.2185 28.5995 70.087 29.0533C70.9555 29.4976 72.0557 29.7294 73.3681 29.7294C74.0533 29.7294 74.6902 29.6617 75.25 29.5362C75.8193 29.401 76.3308 29.2079 76.7747 28.9761C77.238 28.7347 77.624 28.4449 77.9617 28.0973C78.2995 27.7593 78.5697 27.373 78.782 26.9481C79.1487 26.2045 79.3417 25.2967 79.3417 24.2344V16.0838L75.8193 18.0538H75.8097Z" fill="#004474"/>
<path d="M94.2388 19.6545C93.9203 18.8046 93.4861 18.09 92.9456 17.5395C92.4052 16.9891 91.7779 16.5738 91.0831 16.3034C90.0602 15.9075 88.9504 15.8012 87.8695 15.9944C87.5414 16.0523 87.2229 16.1489 86.9334 16.2551C86.779 16.3131 86.6343 16.371 86.4895 16.4386V19.2585C86.6343 19.1813 86.7694 19.104 86.9334 19.0461C87.7055 18.7467 88.4389 18.6984 89.2109 18.9302C89.5197 19.0267 89.8189 19.2199 90.1084 19.4999C90.3883 19.78 90.6295 20.1953 90.8129 20.7457C90.9963 21.3058 91.0928 21.9722 91.0928 22.7448C91.0928 23.3628 91.0252 23.9422 90.8998 24.4444C90.7743 24.9369 90.5909 25.3715 90.34 25.7288C90.0891 26.0861 89.7996 26.3565 89.4425 26.5497C88.8828 26.8491 88.0818 26.9263 87.416 26.7235C87.165 26.6463 86.9334 26.5497 86.7211 26.4241C86.5185 26.3083 86.3158 26.173 86.1421 26.0185C85.9973 25.893 85.8622 25.7771 85.7561 25.6516V9.75586L82.2337 11.7259V26.202C82.2337 26.7042 82.2337 27.2257 82.2144 27.7858C82.2047 28.3459 82.1951 28.8095 82.1758 29.1861V29.3889H85.1192L85.3797 28.2107C85.4569 28.2976 85.5438 28.3845 85.6499 28.4908C85.8526 28.6936 86.1131 28.8867 86.4123 29.0702C86.7115 29.2537 87.0685 29.4082 87.4642 29.5241C87.8695 29.6496 88.3327 29.7172 88.8346 29.7172C89.539 29.7172 90.2532 29.5724 90.9577 29.2827C91.6621 28.9929 92.2991 28.5487 92.8588 27.9596C93.4089 27.3705 93.8624 26.6076 94.2098 25.6998C94.5476 24.7921 94.7213 23.7394 94.7213 22.5709C94.7213 21.47 94.5573 20.4753 94.2484 19.6351L94.2388 19.6545Z" fill="#004474"/>
<path d="M107.993 19.6105C107.713 18.751 107.308 18.0461 106.786 17.4956C106.275 16.9548 105.657 16.5492 104.943 16.2885C103.573 15.7959 101.865 15.7477 100.321 16.3464C99.5776 16.6458 98.902 17.09 98.323 17.6791C97.744 18.2778 97.2711 19.0214 96.9333 19.9099C96.5859 20.7984 96.4219 21.851 96.4219 23.0292C96.4219 24.2073 96.6052 25.2696 96.9623 26.1195C97.329 26.9693 97.8308 27.6743 98.4581 28.2151C99.0757 28.7462 99.8188 29.1422 100.668 29.3836C101.488 29.625 102.376 29.7409 103.303 29.7409C104.229 29.7409 105.088 29.6636 105.937 29.4995C106.806 29.3353 107.423 29.1615 107.838 28.978L107.954 28.9297V26.0325L107.694 26.1195C107.018 26.3416 106.362 26.5154 105.725 26.6409C104.538 26.8727 103.332 26.892 102.367 26.6409C101.923 26.5347 101.527 26.3512 101.189 26.1098C100.861 25.8684 100.591 25.5497 100.379 25.1634C100.195 24.8157 100.089 24.4101 100.031 23.9466C100.031 23.879 100.021 23.8114 100.021 23.7438C100.012 23.6859 100.012 23.6183 100.002 23.5507C99.9539 22.7298 100.05 21.9572 100.118 21.5033C100.128 21.4261 100.147 21.3585 100.157 21.3005C100.176 21.1846 100.195 21.117 100.195 21.0977C100.243 20.8177 100.321 20.5473 100.417 20.2962C100.533 19.9872 100.697 19.7071 100.909 19.4753C101.112 19.2436 101.363 19.0601 101.643 18.9249C102.202 18.6641 103.032 18.6641 103.563 18.9249C103.833 19.0601 104.055 19.2339 104.229 19.4657C104.412 19.6878 104.548 19.9678 104.644 20.2769C104.721 20.5376 104.76 20.808 104.779 21.0881H100.909C100.89 21.1557 100.88 21.2233 100.871 21.2909C100.861 21.3585 100.842 21.4261 100.832 21.4937C100.697 22.3339 100.697 23.0968 100.716 23.541C100.716 23.6183 100.716 23.6859 100.726 23.7341C100.726 23.85 100.745 23.9273 100.745 23.9369H108.379V23.7535C108.417 23.4444 108.427 23.0678 108.437 22.6139C108.437 21.4647 108.292 20.4507 108.012 19.6009L107.993 19.6105Z" fill="#004474"/>
<path d="M61.4824 13.1508C60.5463 13.1508 59.6875 13.3054 58.8961 13.6144C58.1048 13.9234 57.4293 14.3676 56.8599 14.9664C56.2905 15.5555 55.8562 16.2798 55.5378 17.1489C55.2193 18.0084 55.0649 19.0031 55.0649 20.1137C55.0649 21.2242 55.2097 22.19 55.4992 23.0205C55.7887 23.8606 56.2037 24.556 56.7441 25.1161C57.2845 25.6762 57.9504 26.1011 58.7224 26.3812C59.5041 26.6709 60.3919 26.8061 61.3763 26.8061C62.0808 26.8061 62.8142 26.7481 63.5476 26.6419C64.281 26.526 64.9759 26.3618 65.6225 26.1494V29.1045C64.9662 29.2976 64.2618 29.4425 63.4994 29.5487C62.737 29.6646 61.9553 29.7129 61.1447 29.7129C59.5524 29.7129 58.153 29.4811 56.9564 29.0272C55.7501 28.5733 54.7464 27.936 53.9358 27.1055C53.1252 26.2749 52.5172 25.2802 52.1119 24.131C51.7066 22.9722 51.5039 21.6974 51.5039 20.3068C51.5039 18.9162 51.7162 17.5449 52.1505 16.3184C52.5848 15.0919 53.212 14.0296 54.0323 13.1315C54.8526 12.2334 55.8755 11.5284 57.1011 11.0166C58.3267 10.4951 59.7164 10.244 61.2701 10.2344C62.0615 10.2344 62.8142 10.2827 63.5283 10.3889C64.2424 10.4951 64.8794 10.6496 65.4487 10.8428V13.7592C64.696 13.5275 64.0108 13.3633 63.3546 13.2667C62.708 13.1702 62.0808 13.1315 61.4631 13.1315L61.4824 13.1508Z" fill="#004474"/>
</g>
<defs>
<clipPath id="clip0_22316_37639">
<rect width="204" height="40" fill="white"/>
</clipPath>
</defs>
</svg>
