<svg width="25" height="24" viewBox="0 0 25 24" fill="none" xmlns="http://www.w3.org/2000/svg">
<path d="M21.2194 6.40904C18.1884 7.69537 15.258 9.18451 12.2803 10.5751C10.7292 11.2994 11.0785 13.1594 11.0844 14.5269C11.0963 16.3057 11.1555 18.0788 11.114 19.8576C11.0963 20.5529 13.6241 20.8195 13.6655 19.7301C13.6596 18.2062 13.6478 16.6881 13.6419 15.17C13.6359 13.7852 13.3932 11.1546 14.743 10.5172C16.3414 9.76394 19.7868 8.11835 21.3793 7.35351C22.2318 6.94791 22.1844 7.31295 22.1607 7.99667C22.1015 9.67123 22.0423 12.325 21.989 13.9996C21.9535 14.9614 21.9239 15.9233 21.8884 16.8793C21.8411 18.27 20.5327 18.803 19.4849 19.3767C17.0695 20.7094 16.1105 21.3757 13.6359 22.6041C13.2275 22.8069 12.3276 23.0155 11.3745 22.6041C10.9601 22.4187 8.23097 20.7789 6.75689 19.9213C5.72681 19.3245 4.70265 18.7277 3.67849 18.1309C2.55369 17.4819 2.51817 16.4158 2.51817 15.3091C2.51817 12.4815 2.53001 9.96674 2.51817 6.94791C2.50633 5.03579 4.81513 4.1087 6.98185 3.1874L11.6468 1.19416C12.079 1.00295 13.1091 0.776973 13.7721 1.02033C14.6542 1.34481 17.1287 2.63694 19.2718 3.62777L17.922 4.35206L23.5697 5.08793L21.7404 2.30667L20.734 2.84554C18.9935 2.02854 17.3241 1.20575 15.5363 0.382961C13.5708 -0.520951 11.114 0.400343 9.27289 1.17099C4.63161 3.10628 1.3993 4.7171 1.3993 4.7171C0.363295 5.27335 -0.0333446 6.26418 0.00217542 7.55631C0.0436154 8.79049 0.197535 15.5409 0.162015 16.4158C0.126495 17.3255 0.582335 18.1077 1.27498 18.467C3.41801 19.5853 5.42489 20.7557 7.51465 21.9667C9.75833 23.2705 11.487 24.4815 13.9319 23.8035C14.7134 23.5833 19.2363 20.8079 20.7222 19.9851C22.0542 19.2492 23.8835 18.4786 24.3393 17.2734C24.582 16.636 24.5346 13.9416 24.5761 12.6901C24.6412 10.8533 24.7004 9.01647 24.7655 7.17968C24.8188 5.67316 22.806 5.7369 21.2194 6.41483V6.40904Z" fill="#009EC1"/>
</svg>
