<svg width="56" height="56" viewBox="0 0 56 56" fill="none" xmlns="http://www.w3.org/2000/svg">
<g clip-path="url(#clip0_23320_19804)">
<circle cx="28" cy="28" r="28" fill="#F1F3F5"/>
<path d="M37.2762 21.9367C34.0942 23.3309 31.0179 24.9448 27.8918 26.452C26.2636 27.237 26.6302 29.2529 26.6364 30.735C26.6489 32.6629 26.711 34.5846 26.6675 36.5126C26.6489 37.2662 29.3026 37.555 29.3461 36.3744C29.3399 34.7228 29.3275 33.0774 29.3212 31.4321C29.315 29.9311 29.0602 27.08 30.4772 26.3892C32.1552 25.5728 35.7722 23.7893 37.444 22.9604C38.339 22.5208 38.2892 22.9164 38.2644 23.6574C38.2022 25.4723 38.1401 28.3486 38.0842 30.1635C38.0469 31.206 38.0158 32.2485 37.9785 33.2846C37.9288 34.7918 36.5553 35.3696 35.4553 35.9913C32.9196 37.4357 31.9128 38.1579 29.315 39.4893C28.8862 39.7091 27.9416 39.9352 26.941 39.4893C26.5059 39.2883 23.6409 37.5111 22.0934 36.5816C21.012 35.9348 19.9369 35.288 18.8617 34.6411C17.6809 33.9378 17.6436 32.7822 17.6436 31.5828C17.6436 28.5181 17.656 25.7926 17.6436 22.5208C17.6312 20.4484 20.0549 19.4436 22.3296 18.445L27.2269 16.2847C27.6805 16.0775 28.7619 15.8326 29.458 16.0963C30.384 16.448 32.9818 17.8484 35.2316 18.9223L33.8146 19.7073L39.7435 20.5049L37.8231 17.4905L36.7666 18.0745C34.9395 17.189 33.1869 16.2973 31.31 15.4055C29.2467 14.4259 26.6675 15.4244 24.7347 16.2596C19.8623 18.3571 16.469 20.103 16.469 20.103C15.3814 20.7058 14.965 21.7797 15.0023 23.1802C15.0458 24.5178 15.2074 31.834 15.1701 32.7822C15.1328 33.7682 15.6113 34.616 16.3385 35.0054C18.5882 36.2174 20.6951 37.486 22.8889 38.7985C25.2443 40.2115 27.0591 41.524 29.6258 40.7892C30.4461 40.5506 35.1943 37.5425 36.7542 36.6507C38.1525 35.8532 40.0729 35.0179 40.5514 33.7117C40.8063 33.0209 40.7565 30.1007 40.8 28.7442C40.8684 26.7535 40.9305 24.7627 40.9989 22.772C41.0548 21.1392 38.9418 21.2082 37.2762 21.943V21.9367Z" fill="#009EC1"/>
</g>
<defs>
<clipPath id="clip0_23320_19804">
<rect width="56" height="56" fill="white"/>
</clipPath>
</defs>
</svg>
