<svg width="20" height="20" viewBox="0 0 20 20" fill="none" xmlns="http://www.w3.org/2000/svg">
<circle cx="10" cy="10" r="9" fill="#ADB5BD"/>
<path d="M10 5.03125C10.4141 5.03125 10.7498 5.36724 10.75 5.78125V9.25391H14.2217L14.2988 9.25781C14.6768 9.29638 14.9717 9.6157 14.9717 10.0039C14.9717 10.3921 14.6768 10.7114 14.2988 10.75L14.2217 10.7539H10.75V14.2256C10.75 14.6398 10.4142 14.9756 10 14.9756C9.58579 14.9756 9.25 14.6398 9.25 14.2256V10.7539H5.77734C5.36333 10.7537 5.02734 10.418 5.02734 10.0039C5.02734 9.58984 5.36333 9.25414 5.77734 9.25391H9.25V5.78125C9.25023 5.36724 9.58593 5.03125 10 5.03125Z" fill="white"/>
</svg>
